<svg version="1.1" id="Layer_1" xmlns="http://www.w3.org/2000/svg" xmlns:xlink="http://www.w3.org/1999/xlink" x="0px" y="0px"
	 width="100%" viewBox="0 0 1162 1069" enable-background="new 0 0 1162 1069" xml:space="preserve">
<path fill="#FFFFFF" opacity="0.000000" stroke="none" 
	d="
M705.000000,1070.000000 
	C470.026215,1070.000000 235.552414,1070.000000 1.039311,1070.000000 
	C1.039311,713.732727 1.039311,357.465393 1.039311,1.099046 
	C388.223969,1.099046 775.447998,1.099046 1162.835938,1.099046 
	C1162.835938,357.333282 1162.835938,713.666626 1162.835938,1070.000000 
	C1010.465027,1070.000000 857.982483,1070.000000 705.000000,1070.000000 
M523.951538,206.226593 
	C525.226013,205.860321 526.524170,205.560715 527.771484,205.117966 
	C555.552734,195.256927 584.248108,189.836456 613.611328,188.245773 
	C638.120972,186.917999 662.564514,188.507538 686.652161,193.259827 
	C767.179321,209.147141 832.678833,249.805786 883.828369,313.809357 
	C888.569031,319.741333 892.937683,325.970581 897.787781,332.475800 
	C898.311340,331.304688 898.744995,330.748749 898.796143,330.159546 
	C899.931396,317.086090 901.403870,304.027588 902.046509,290.928650 
	C903.394775,263.444519 892.265137,240.818985 873.900085,221.186157 
	C855.010315,200.992493 831.792114,187.683960 805.866211,178.932953 
	C757.011475,162.442612 706.754700,158.611572 655.631409,162.767120 
	C623.057190,165.414886 591.451904,172.361557 561.443237,185.234314 
	C548.102478,190.957062 535.745667,198.973373 522.471802,206.076599 
	C522.491211,206.308212 522.510559,206.539841 522.529907,206.771454 
	C522.741150,206.569397 522.952393,206.367325 523.951538,206.226593 
M824.422302,483.063232 
	C830.438232,490.663910 837.833435,496.483429 846.871887,500.045959 
	C879.935608,513.077881 916.966064,497.808075 931.191101,465.219116 
	C935.562317,455.204742 937.007446,445.028137 933.694397,434.144897 
	C914.651794,371.591949 880.653015,318.677399 830.423218,276.909637 
	C753.213196,212.706833 664.669556,186.654922 565.421814,205.151016 
	C471.024139,222.743225 401.344330,275.900391 357.375580,361.114807 
	C325.257416,423.362000 318.303986,489.729889 331.375641,558.321472 
	C332.716888,565.359497 334.601898,572.293884 336.357666,579.802734 
	C343.895935,573.121765 350.540253,567.079163 357.349182,561.228210 
	C375.839844,545.338806 397.057343,537.127808 421.666016,539.082886 
	C434.483795,540.101257 446.841705,543.199585 459.071625,548.963318 
	C458.707062,547.290588 458.511261,546.194641 458.228027,545.121765 
	C451.293701,518.857422 449.510834,492.284485 454.011871,465.453827 
	C461.144562,422.935669 481.211761,387.618011 515.218872,361.113373 
	C559.778809,326.384033 610.681702,317.131958 664.882446,329.767395 
	C736.348206,346.427734 783.374634,392.023407 811.192627,458.909912 
	C814.610046,467.126678 819.666565,474.661743 824.422302,483.063232 
M732.439880,680.040466 
	C695.835144,698.051270 657.392883,702.396301 617.668762,694.365845 
	C563.210388,683.356567 520.647949,653.946533 488.285583,609.121826 
	C482.159302,600.636414 475.998230,591.958618 468.578094,584.667175 
	C449.438202,565.859192 426.478851,558.408875 399.937622,565.083313 
	C386.911316,568.359131 376.926483,576.850342 367.598816,586.013916 
	C333.720490,619.296387 299.907288,652.645264 266.111115,686.011292 
	C258.999054,693.032837 251.603851,699.840271 245.126068,707.419128 
	C216.414017,741.011414 227.235184,792.401733 266.581757,810.433655 
	C291.908356,822.040405 321.255188,816.278687 342.426971,795.380371 
	C366.028137,772.084167 389.552673,748.710205 413.021210,725.280457 
	C414.257324,724.046387 414.660431,721.977905 415.451324,720.297913 
	C419.206879,723.517029 420.660828,725.357910 422.342865,726.959229 
	C503.659973,804.373169 599.586548,837.244324 710.445007,815.455688 
	C808.645630,796.154907 878.840149,738.346497 920.753479,647.402649 
	C931.436279,624.223083 928.475952,600.789307 912.849487,579.877869 
	C900.199524,562.949585 873.483643,553.194519 855.017090,558.468506 
	C856.594727,562.484253 858.344666,566.431274 859.711243,570.506836 
	C865.028625,586.364746 860.540649,592.870789 843.713928,594.145020 
	C833.316895,594.932434 823.223572,593.605530 813.300720,589.825562 
	C797.357300,629.758728 771.164673,660.066406 732.439880,680.040466 
M677.934875,93.228653 
	C675.317078,93.649475 672.694153,94.040810 670.082275,94.495705 
	C643.712402,99.088333 619.354736,109.057213 596.277161,122.341705 
	C565.688049,139.950211 538.516357,161.616760 517.431213,190.224136 
	C512.627747,196.741226 508.823517,203.994827 504.559387,210.909424 
	C505.039978,211.252930 505.520569,211.596436 506.001160,211.939926 
	C516.569214,199.369339 529.711609,190.115997 544.029602,182.565826 
	C585.213745,160.848618 629.511230,150.916855 675.717102,149.147766 
	C691.648438,148.537796 707.676331,149.107544 723.601135,150.092697 
	C736.644226,150.899567 749.662781,152.736359 762.573792,154.842453 
	C772.640015,156.484528 782.524231,159.242386 792.886353,161.594528 
	C792.553040,160.552658 792.380188,159.785690 792.070923,159.078384 
	C781.512451,134.928009 763.866455,117.389687 740.924683,105.049576 
	C721.541687,94.623711 700.818237,90.384369 677.934875,93.228653 
M292.563232,874.571350 
	C289.462555,874.571350 286.361908,874.571350 282.845825,874.571350 
	C282.845825,886.822449 282.845825,898.416931 282.845825,910.051270 
	C275.157990,910.051270 267.903137,910.051270 260.173920,910.051270 
	C260.173920,898.208435 260.173920,886.623901 260.173920,874.917725 
	C249.953766,874.917725 240.215637,874.917725 230.433197,874.917725 
	C230.433197,907.342896 230.433197,939.420898 230.433197,971.708618 
	C240.389297,971.708618 250.100586,971.708618 260.361542,971.708618 
	C260.361542,959.034973 260.361542,946.649841 260.361542,934.365601 
	C268.171539,934.365601 275.426544,934.365601 283.196411,934.365601 
	C283.196411,947.042480 283.196411,959.427185 283.196411,971.603149 
	C293.442963,971.603149 303.161469,971.603149 312.715210,971.603149 
	C312.715210,939.125549 312.715210,907.051453 312.715210,874.571777 
	C306.150238,874.571777 299.846954,874.571777 292.563232,874.571350 
M510.757507,942.232300 
	C508.094635,942.832642 505.431763,943.432983 502.569305,944.078308 
	C506.133636,956.220459 512.748291,965.135559 524.098633,969.484741 
	C539.483643,975.380066 555.121887,975.260742 570.322021,968.770081 
	C579.574585,964.819092 586.471252,958.145386 588.949524,947.958618 
	C592.840393,931.965271 585.033813,917.981018 569.283752,913.218384 
	C560.227112,910.479736 550.877502,908.707153 541.831604,905.938232 
	C539.871765,905.338318 537.125793,902.000793 537.450378,900.516479 
	C537.909912,898.414673 540.669189,895.684326 542.823792,895.290100 
	C550.230774,893.934814 557.123413,895.092041 561.530457,902.402771 
	C562.024414,903.222290 563.755066,904.023865 564.615051,903.781006 
	C572.094666,901.668823 579.506531,899.316284 587.140076,896.973328 
	C584.429932,890.015869 580.452881,884.614807 574.789856,880.519287 
	C560.095764,869.892456 532.073181,870.718018 518.279358,881.837341 
	C502.464478,894.585999 502.975281,922.513916 525.420044,930.473938 
	C530.265747,932.192505 535.221313,933.622314 540.176270,935.006165 
	C544.970764,936.345093 550.024597,936.984314 554.572266,938.874634 
	C556.628784,939.729492 559.081360,943.004395 558.888550,944.935059 
	C558.701111,946.811340 555.592468,949.387512 553.362976,949.899841 
	C542.539978,952.386902 536.098083,949.228088 529.649902,938.962524 
	C523.697998,939.996826 517.650024,941.047791 510.757507,942.232300 
M407.796021,913.092224 
	C413.538055,912.788452 419.280090,912.484619 424.961090,912.184021 
	C425.019104,895.337708 414.885986,880.537842 400.387848,875.549072 
	C382.023773,869.229919 361.549805,874.227966 351.235168,887.783142 
	C340.194550,902.292480 338.425568,918.954468 341.166351,936.256042 
	C343.669617,952.058228 351.586884,964.531799 367.073822,970.310303 
	C382.662048,976.126526 397.943359,974.985901 411.491760,964.415588 
	C420.368530,957.490112 424.307709,947.892395 425.211853,936.431946 
	C415.903015,935.885742 407.143860,935.371765 398.402588,934.858887 
	C397.920258,936.886414 397.565582,938.493408 397.154449,940.085754 
	C395.317352,947.201050 391.418335,950.773376 385.321899,950.953064 
	C379.057770,951.137756 374.320587,947.569763 372.650482,940.446838 
	C369.951172,928.934326 369.906738,917.300476 373.063507,905.850464 
	C375.082825,898.526184 379.940765,894.719727 385.683807,895.197998 
	C391.766602,895.704529 396.181213,900.810486 397.106781,908.387817 
	C397.318604,910.122070 397.578613,911.850403 397.836212,913.725403 
	C401.243500,913.499817 404.058502,913.313416 407.796021,913.092224 
M859.963501,901.500000 
	C859.963501,924.917969 859.963501,948.335876 859.963501,971.739014 
	C865.709412,971.739014 870.793335,971.739014 875.777100,971.739014 
	C877.019958,968.601685 878.159241,965.725708 879.478821,962.394836 
	C880.451233,963.305237 881.048401,963.820679 881.596436,964.383850 
	C897.237732,980.455933 922.996643,975.322876 930.926880,954.385559 
	C935.306458,942.822571 934.950928,931.033264 932.191406,919.029907 
	C927.221802,897.412781 901.944397,890.684998 887.874451,907.077759 
	C887.874451,895.881775 887.874451,885.362305 887.874451,874.896606 
	C878.334351,874.896606 869.391418,874.896606 859.963501,874.896606 
	C859.963501,883.586121 859.963501,892.043091 859.963501,901.500000 
M660.163940,437.691986 
	C651.824341,444.330597 643.410583,450.879456 635.191589,457.664276 
	C632.820374,459.621765 631.220825,459.936676 628.345398,458.273224 
	C602.835083,443.515167 571.050415,448.273499 551.078735,469.598602 
	C530.950989,491.090363 528.508179,523.093445 545.301086,547.823853 
	C547.085693,550.452087 547.049866,552.327087 545.633850,554.972351 
	C537.470825,570.221558 529.465088,585.555054 521.409241,600.861694 
	C520.728699,602.154785 520.072266,603.460571 519.404602,604.760437 
	C519.711670,604.967041 520.018677,605.173584 520.325745,605.380188 
	C537.016235,587.635986 553.706726,569.891785 570.427124,552.115723 
	C543.142090,530.422363 547.289185,498.768433 561.944946,482.586975 
	C569.865906,473.841400 579.587952,468.378265 591.300964,467.102325 
	C608.405762,465.239044 622.523438,471.433075 633.855591,484.599915 
	C664.247131,452.481659 694.285706,420.736481 724.324219,388.991333 
	C723.898743,388.540070 723.473267,388.088806 723.047791,387.637543 
	C702.267456,404.167725 681.487183,420.697906 660.163940,437.691986 
M830.198608,971.999756 
	C830.716736,970.997253 831.724854,969.967163 831.670410,968.996826 
	C831.400635,964.193970 830.570801,959.413574 830.454590,954.612793 
	C830.184448,943.456055 830.374939,932.287659 830.070557,921.132385 
	C829.769836,910.110901 824.620605,903.565430 814.046631,900.373474 
	C811.035400,899.464478 807.893372,898.823792 804.765564,898.495483 
	C793.901855,897.355347 783.099060,897.444763 772.894653,902.037415 
	C764.891052,905.639587 759.730835,911.668457 757.688171,920.696045 
	C766.535095,921.533447 774.789734,922.314819 782.911560,923.083557 
	C786.357849,916.260193 791.493958,913.869934 798.010376,915.632446 
	C802.872742,916.947632 803.339172,920.361023 802.763916,924.590027 
	C798.113525,925.080078 793.640808,925.403259 789.215088,926.048889 
	C780.123840,927.375000 771.070618,928.984863 763.666321,935.054260 
	C756.865417,940.628967 754.207703,947.944946 756.110474,956.454407 
	C757.917908,964.537537 763.046875,970.100159 771.201416,972.147400 
	C783.604065,975.261169 794.933105,973.626831 804.125854,962.892517 
	C804.648987,966.254456 805.072083,968.973206 805.544067,972.006409 
	C813.642883,972.006409 821.447754,972.006409 830.198608,971.999756 
M708.517334,948.051758 
	C704.757568,948.051758 700.997742,948.051758 696.899231,948.051758 
	C696.899231,923.310425 696.899231,899.228027 696.899231,874.979858 
	C686.834290,874.979858 677.135681,874.979858 667.423706,874.979858 
	C667.423706,907.483032 667.423706,939.662170 667.423706,971.690491 
	C690.218811,971.690491 712.632690,971.690491 735.079468,971.690491 
	C735.079468,963.773987 735.079468,956.173340 735.079468,948.051758 
	C726.405884,948.051758 717.958435,948.051758 708.517334,948.051758 
M450.995483,901.500000 
	C450.995483,924.917969 450.995483,948.335938 450.995483,971.606689 
	C461.365631,971.606689 471.084412,971.606689 480.612823,971.606689 
	C480.612823,939.121338 480.612823,907.034424 480.612823,874.895874 
	C470.676422,874.895874 461.073914,874.895874 450.995483,874.895874 
	C450.995483,883.584473 450.995483,892.042236 450.995483,901.500000 
M728.900574,479.131744 
	C727.602478,479.425140 726.282043,479.643555 725.009827,480.023651 
	C712.595337,483.732605 705.686646,497.144440 709.825745,509.455627 
	C714.054565,522.033813 727.809143,528.491211 740.134888,523.684937 
	C750.227478,519.749451 756.461060,508.759491 754.484741,498.385712 
	C752.161194,486.190002 742.901611,478.952362 728.900574,479.131744 
M622.681274,486.805115 
	C611.002747,476.106293 597.525513,473.286133 582.987183,479.268555 
	C568.629150,485.176697 560.827576,496.631744 560.215271,512.151428 
	C559.670898,525.948730 565.805115,536.672729 577.457886,544.607117 
	C579.183289,542.760986 580.617737,541.226074 582.065796,539.676697 
	C565.483826,525.910645 562.320618,508.753387 573.584595,494.720337 
	C578.956787,488.027527 585.957764,484.213654 594.505676,483.497375 
	C606.252258,482.513062 615.280518,487.654663 622.387939,496.924561 
	C624.188293,494.938049 625.599182,493.381195 627.082092,491.744904 
	C625.589050,490.043976 624.386414,488.673859 622.681274,486.805115 
M504.524475,213.327133 
	C504.524475,213.327133 504.423248,213.539337 504.423248,213.539337 
	C504.423248,213.539337 504.628357,213.497147 504.524475,213.327133 
z"/>
<path fill="#5F91B7" opacity="1.000000" stroke="none" 
	d="
M824.192871,482.787964 
	C819.666565,474.661743 814.610046,467.126678 811.192627,458.909912 
	C783.374634,392.023407 736.348206,346.427734 664.882446,329.767395 
	C610.681702,317.131958 559.778809,326.384033 515.218872,361.113373 
	C481.211761,387.618011 461.144562,422.935669 454.011871,465.453827 
	C449.510834,492.284485 451.293701,518.857422 458.228027,545.121765 
	C458.511261,546.194641 458.707062,547.290588 459.071625,548.963318 
	C446.841705,543.199585 434.483795,540.101257 421.666016,539.082886 
	C397.057343,537.127808 375.839844,545.338806 357.349182,561.228210 
	C350.540253,567.079163 343.895935,573.121765 336.357666,579.802734 
	C334.601898,572.293884 332.716888,565.359497 331.375641,558.321472 
	C318.303986,489.729889 325.257416,423.362000 357.375580,361.114807 
	C401.344330,275.900391 471.024139,222.743225 565.421814,205.151016 
	C664.669556,186.654922 753.213196,212.706833 830.423218,276.909637 
	C880.653015,318.677399 914.651794,371.591949 933.694397,434.144897 
	C937.007446,445.028137 935.562317,455.204742 931.191101,465.219116 
	C916.966064,497.808075 879.935608,513.077881 846.871887,500.045959 
	C837.833435,496.483429 830.438232,490.663910 824.192871,482.787964 
z"/>
<path fill="#345A76" opacity="1.000000" stroke="none" 
	d="
M732.783691,679.894470 
	C771.164673,660.066406 797.357300,629.758728 813.300720,589.825562 
	C823.223572,593.605530 833.316895,594.932434 843.713928,594.145020 
	C860.540649,592.870789 865.028625,586.364746 859.711243,570.506836 
	C858.344666,566.431274 856.594727,562.484253 855.017090,558.468506 
	C873.483643,553.194519 900.199524,562.949585 912.849487,579.877869 
	C928.475952,600.789307 931.436279,624.223083 920.753479,647.402649 
	C878.840149,738.346497 808.645630,796.154907 710.445007,815.455688 
	C599.586548,837.244324 503.659973,804.373169 422.342865,726.959229 
	C420.660828,725.357910 419.206879,723.517029 415.451324,720.297913 
	C414.660431,721.977905 414.257324,724.046387 413.021210,725.280457 
	C389.552673,748.710205 366.028137,772.084167 342.426971,795.380371 
	C321.255188,816.278687 291.908356,822.040405 266.581757,810.433655 
	C227.235184,792.401733 216.414017,741.011414 245.126068,707.419128 
	C251.603851,699.840271 258.999054,693.032837 266.111115,686.011292 
	C299.907288,652.645264 333.720490,619.296387 367.598816,586.013916 
	C376.926483,576.850342 386.911316,568.359131 399.937622,565.083313 
	C426.478851,558.408875 449.438202,565.859192 468.578094,584.667175 
	C475.998230,591.958618 482.159302,600.636414 488.285583,609.121826 
	C520.647949,653.946533 563.210388,683.356567 617.668762,694.365845 
	C657.392883,702.396301 695.835144,698.051270 732.783691,679.894470 
M368.994019,640.413940 
	C369.335907,643.382507 369.479492,646.389832 370.051056,649.313538 
	C374.639496,672.783813 396.967316,689.448792 421.675659,687.928406 
	C445.190979,686.481506 465.430908,666.415283 466.935181,643.057434 
	C468.751709,614.850891 447.486755,591.117981 419.550507,590.173462 
	C391.933441,589.239685 369.262878,611.345093 368.994019,640.413940 
z"/>
<path fill="#6FA9CB" opacity="1.000000" stroke="none" 
	d="
M522.942200,205.948639 
	C535.745667,198.973373 548.102478,190.957062 561.443237,185.234314 
	C591.451904,172.361557 623.057190,165.414886 655.631409,162.767120 
	C706.754700,158.611572 757.011475,162.442612 805.866211,178.932953 
	C831.792114,187.683960 855.010315,200.992493 873.900085,221.186157 
	C892.265137,240.818985 903.394775,263.444519 902.046509,290.928650 
	C901.403870,304.027588 899.931396,317.086090 898.796143,330.159546 
	C898.744995,330.748749 898.311340,331.304688 897.787781,332.475800 
	C892.937683,325.970581 888.569031,319.741333 883.828369,313.809357 
	C832.678833,249.805786 767.179321,209.147141 686.652161,193.259827 
	C662.564514,188.507538 638.120972,186.917999 613.611328,188.245773 
	C584.248108,189.836456 555.552734,195.256927 527.771484,205.117966 
	C526.524170,205.560715 525.226013,205.860321 523.502808,206.141205 
	C523.054016,206.055817 522.942200,205.948639 522.942200,205.948639 
z"/>
<path fill="#9FC7EC" opacity="1.000000" stroke="none" 
	d="
M678.383240,93.163788 
	C700.818237,90.384369 721.541687,94.623711 740.924683,105.049576 
	C763.866455,117.389687 781.512451,134.928009 792.070923,159.078384 
	C792.380188,159.785690 792.553040,160.552658 792.886353,161.594528 
	C782.524231,159.242386 772.640015,156.484528 762.573792,154.842453 
	C749.662781,152.736359 736.644226,150.899567 723.601135,150.092697 
	C707.676331,149.107544 691.648438,148.537796 675.717102,149.147766 
	C629.511230,150.916855 585.213745,160.848618 544.029602,182.565826 
	C529.711609,190.115997 516.569214,199.369339 506.001160,211.939926 
	C505.520569,211.596436 505.039978,211.252930 504.559387,210.909424 
	C508.823517,203.994827 512.627747,196.741226 517.431213,190.224136 
	C538.516357,161.616760 565.688049,139.950211 596.277161,122.341705 
	C619.354736,109.057213 643.712402,99.088333 670.082275,94.495705 
	C672.694153,94.040810 675.317078,93.649475 678.383240,93.163788 
z"/>
<path fill="#345B77" opacity="1.000000" stroke="none" 
	d="
M293.053467,874.571533 
	C299.846954,874.571777 306.150238,874.571777 312.715210,874.571777 
	C312.715210,907.051453 312.715210,939.125549 312.715210,971.603149 
	C303.161469,971.603149 293.442963,971.603149 283.196411,971.603149 
	C283.196411,959.427185 283.196411,947.042480 283.196411,934.365601 
	C275.426544,934.365601 268.171539,934.365601 260.361542,934.365601 
	C260.361542,946.649841 260.361542,959.034973 260.361542,971.708618 
	C250.100586,971.708618 240.389297,971.708618 230.433197,971.708618 
	C230.433197,939.420898 230.433197,907.342896 230.433197,874.917725 
	C240.215637,874.917725 249.953766,874.917725 260.173920,874.917725 
	C260.173920,886.623901 260.173920,898.208435 260.173920,910.051270 
	C267.903137,910.051270 275.157990,910.051270 282.845825,910.051270 
	C282.845825,898.416931 282.845825,886.822449 282.845825,874.571350 
	C286.361908,874.571350 289.462555,874.571350 293.053467,874.571533 
z"/>
<path fill="#355C77" opacity="1.000000" stroke="none" 
	d="
M511.179779,942.165527 
	C517.650024,941.047791 523.697998,939.996826 529.649902,938.962524 
	C536.098083,949.228088 542.539978,952.386902 553.362976,949.899841 
	C555.592468,949.387512 558.701111,946.811340 558.888550,944.935059 
	C559.081360,943.004395 556.628784,939.729492 554.572266,938.874634 
	C550.024597,936.984314 544.970764,936.345093 540.176270,935.006165 
	C535.221313,933.622314 530.265747,932.192505 525.420044,930.473938 
	C502.975281,922.513916 502.464478,894.585999 518.279358,881.837341 
	C532.073181,870.718018 560.095764,869.892456 574.789856,880.519287 
	C580.452881,884.614807 584.429932,890.015869 587.140076,896.973328 
	C579.506531,899.316284 572.094666,901.668823 564.615051,903.781006 
	C563.755066,904.023865 562.024414,903.222290 561.530457,902.402771 
	C557.123413,895.092041 550.230774,893.934814 542.823792,895.290100 
	C540.669189,895.684326 537.909912,898.414673 537.450378,900.516479 
	C537.125793,902.000793 539.871765,905.338318 541.831604,905.938232 
	C550.877502,908.707153 560.227112,910.479736 569.283752,913.218384 
	C585.033813,917.981018 592.840393,931.965271 588.949524,947.958618 
	C586.471252,958.145386 579.574585,964.819092 570.322021,968.770081 
	C555.121887,975.260742 539.483643,975.380066 524.098633,969.484741 
	C512.748291,965.135559 506.133636,956.220459 502.569305,944.078308 
	C505.431763,943.432983 508.094635,942.832642 511.179779,942.165527 
z"/>
<path fill="#355C77" opacity="1.000000" stroke="none" 
	d="
M407.334778,913.109619 
	C404.058502,913.313416 401.243500,913.499817 397.836212,913.725403 
	C397.578613,911.850403 397.318604,910.122070 397.106781,908.387817 
	C396.181213,900.810486 391.766602,895.704529 385.683807,895.197998 
	C379.940765,894.719727 375.082825,898.526184 373.063507,905.850464 
	C369.906738,917.300476 369.951172,928.934326 372.650482,940.446838 
	C374.320587,947.569763 379.057770,951.137756 385.321899,950.953064 
	C391.418335,950.773376 395.317352,947.201050 397.154449,940.085754 
	C397.565582,938.493408 397.920258,936.886414 398.402588,934.858887 
	C407.143860,935.371765 415.903015,935.885742 425.211853,936.431946 
	C424.307709,947.892395 420.368530,957.490112 411.491760,964.415588 
	C397.943359,974.985901 382.662048,976.126526 367.073822,970.310303 
	C351.586884,964.531799 343.669617,952.058228 341.166351,936.256042 
	C338.425568,918.954468 340.194550,902.292480 351.235168,887.783142 
	C361.549805,874.227966 382.023773,869.229919 400.387848,875.549072 
	C414.885986,880.537842 425.019104,895.337708 424.961090,912.184021 
	C419.280090,912.484619 413.538055,912.788452 407.334778,913.109619 
z"/>
<path fill="#345B77" opacity="1.000000" stroke="none" 
	d="
M859.963501,901.000000 
	C859.963501,892.043091 859.963501,883.586121 859.963501,874.896606 
	C869.391418,874.896606 878.334351,874.896606 887.874451,874.896606 
	C887.874451,885.362305 887.874451,895.881775 887.874451,907.077759 
	C901.944397,890.684998 927.221802,897.412781 932.191406,919.029907 
	C934.950928,931.033264 935.306458,942.822571 930.926880,954.385559 
	C922.996643,975.322876 897.237732,980.455933 881.596436,964.383850 
	C881.048401,963.820679 880.451233,963.305237 879.478821,962.394836 
	C878.159241,965.725708 877.019958,968.601685 875.777100,971.739014 
	C870.793335,971.739014 865.709412,971.739014 859.963501,971.739014 
	C859.963501,948.335876 859.963501,924.917969 859.963501,901.000000 
M888.869202,920.760071 
	C888.591248,929.353760 888.103699,937.947571 888.110291,946.541016 
	C888.114563,952.118835 890.912231,955.176208 895.413208,955.656799 
	C899.955505,956.141785 904.025208,953.329590 904.475403,947.740906 
	C905.123352,939.696960 905.135193,931.502930 904.287231,923.492737 
	C904.003662,920.814331 900.699280,917.574829 897.971619,916.260193 
	C894.598877,914.634521 891.239807,916.656494 888.869202,920.760071 
z"/>
<path fill="#375D78" opacity="1.000000" stroke="none" 
	d="
M660.435425,437.460022 
	C681.487183,420.697906 702.267456,404.167725 723.047791,387.637543 
	C723.473267,388.088806 723.898743,388.540070 724.324219,388.991333 
	C694.285706,420.736481 664.247131,452.481659 633.855591,484.599915 
	C622.523438,471.433075 608.405762,465.239044 591.300964,467.102325 
	C579.587952,468.378265 569.865906,473.841400 561.944946,482.586975 
	C547.289185,498.768433 543.142090,530.422363 570.427124,552.115723 
	C553.706726,569.891785 537.016235,587.635986 520.325745,605.380188 
	C520.018677,605.173584 519.711670,604.967041 519.404602,604.760437 
	C520.072266,603.460571 520.728699,602.154785 521.409241,600.861694 
	C529.465088,585.555054 537.470825,570.221558 545.633850,554.972351 
	C547.049866,552.327087 547.085693,550.452087 545.301086,547.823853 
	C528.508179,523.093445 530.950989,491.090363 551.078735,469.598602 
	C571.050415,448.273499 602.835083,443.515167 628.345398,458.273224 
	C631.220825,459.936676 632.820374,459.621765 635.191589,457.664276 
	C643.410583,450.879456 651.824341,444.330597 660.435425,437.460022 
z"/>
<path fill="#355C77" opacity="1.000000" stroke="none" 
	d="
M829.725647,972.003052 
	C821.447754,972.006409 813.642883,972.006409 805.544067,972.006409 
	C805.072083,968.973206 804.648987,966.254456 804.125854,962.892517 
	C794.933105,973.626831 783.604065,975.261169 771.201416,972.147400 
	C763.046875,970.100159 757.917908,964.537537 756.110474,956.454407 
	C754.207703,947.944946 756.865417,940.628967 763.666321,935.054260 
	C771.070618,928.984863 780.123840,927.375000 789.215088,926.048889 
	C793.640808,925.403259 798.113525,925.080078 802.763916,924.590027 
	C803.339172,920.361023 802.872742,916.947632 798.010376,915.632446 
	C791.493958,913.869934 786.357849,916.260193 782.911560,923.083557 
	C774.789734,922.314819 766.535095,921.533447 757.688171,920.696045 
	C759.730835,911.668457 764.891052,905.639587 772.894653,902.037415 
	C783.099060,897.444763 793.901855,897.355347 804.765564,898.495483 
	C807.893372,898.823792 811.035400,899.464478 814.046631,900.373474 
	C824.620605,903.565430 829.769836,910.110901 830.070557,921.132385 
	C830.374939,932.287659 830.184448,943.456055 830.454590,954.612793 
	C830.570801,959.413574 831.400635,964.193970 831.670410,968.996826 
	C831.724854,969.967163 830.716736,970.997253 829.725647,972.003052 
M790.810120,956.090210 
	C801.000671,955.895203 805.073181,949.575806 802.113708,937.390808 
	C797.571472,939.095520 792.729797,940.133484 788.761414,942.585022 
	C782.848267,946.237793 783.758179,953.405090 790.810120,956.090210 
z"/>
<path fill="#345B76" opacity="1.000000" stroke="none" 
	d="
M709.014160,948.051758 
	C717.958435,948.051758 726.405884,948.051758 735.079468,948.051758 
	C735.079468,956.173340 735.079468,963.773987 735.079468,971.690491 
	C712.632690,971.690491 690.218811,971.690491 667.423706,971.690491 
	C667.423706,939.662170 667.423706,907.483032 667.423706,874.979858 
	C677.135681,874.979858 686.834290,874.979858 696.899231,874.979858 
	C696.899231,899.228027 696.899231,923.310425 696.899231,948.051758 
	C700.997742,948.051758 704.757568,948.051758 709.014160,948.051758 
z"/>
<path fill="#345B76" opacity="1.000000" stroke="none" 
	d="
M450.995483,901.000000 
	C450.995483,892.042236 450.995483,883.584473 450.995483,874.895874 
	C461.073914,874.895874 470.676422,874.895874 480.612823,874.895874 
	C480.612823,907.034424 480.612823,939.121338 480.612823,971.606689 
	C471.084412,971.606689 461.365631,971.606689 450.995483,971.606689 
	C450.995483,948.335938 450.995483,924.917969 450.995483,901.000000 
z"/>
<path fill="#355C77" opacity="1.000000" stroke="none" 
	d="
M729.334106,479.098816 
	C742.901611,478.952362 752.161194,486.190002 754.484741,498.385712 
	C756.461060,508.759491 750.227478,519.749451 740.134888,523.684937 
	C727.809143,528.491211 714.054565,522.033813 709.825745,509.455627 
	C705.686646,497.144440 712.595337,483.732605 725.009827,480.023651 
	C726.282043,479.643555 727.602478,479.425140 729.334106,479.098816 
z"/>
<path fill="#3B607B" opacity="1.000000" stroke="none" 
	d="
M622.932495,487.054443 
	C624.386414,488.673859 625.589050,490.043976 627.082092,491.744904 
	C625.599182,493.381195 624.188293,494.938049 622.387939,496.924561 
	C615.280518,487.654663 606.252258,482.513062 594.505676,483.497375 
	C585.957764,484.213654 578.956787,488.027527 573.584595,494.720337 
	C562.320618,508.753387 565.483826,525.910645 582.065796,539.676697 
	C580.617737,541.226074 579.183289,542.760986 577.457886,544.607117 
	C565.805115,536.672729 559.670898,525.948730 560.215271,512.151428 
	C560.827576,496.631744 568.629150,485.176697 582.987183,479.268555 
	C597.525513,473.286133 611.002747,476.106293 622.932495,487.054443 
z"/>
<path fill="#9FC7EC" opacity="1.000000" stroke="none" 
	d="
M504.576416,213.412140 
	C504.628357,213.497147 504.423248,213.539337 504.423248,213.539337 
	C504.423248,213.539337 504.524475,213.327133 504.576416,213.412140 
z"/>
<path fill="#6FA9CB" opacity="1.000000" stroke="none" 
	d="
M523.108826,206.110535 
	C522.952393,206.367325 522.741150,206.569397 522.529907,206.771454 
	C522.510559,206.539841 522.491211,206.308212 522.707031,206.012619 
	C522.942200,205.948639 523.054016,206.055817 523.108826,206.110535 
z"/>
<path fill="#FBFBFC" opacity="0.000000" stroke="none" 
	d="
M368.993408,639.942383 
	C369.262878,611.345093 391.933441,589.239685 419.550507,590.173462 
	C447.486755,591.117981 468.751709,614.850891 466.935181,643.057434 
	C465.430908,666.415283 445.190979,686.481506 421.675659,687.928406 
	C396.967316,689.448792 374.639496,672.783813 370.051056,649.313538 
	C369.479492,646.389832 369.335907,643.382507 368.993408,639.942383 
M419.375519,672.093445 
	C438.634033,671.055481 452.140747,655.809692 451.031555,636.361572 
	C450.034424,618.878540 433.911896,604.999695 415.845490,606.072205 
	C398.146301,607.122925 384.562988,622.102966 384.915985,640.181946 
	C385.264862,658.047668 399.562958,671.661865 419.375519,672.093445 
z"/>
<path fill="#FBFCFC" opacity="0.000000" stroke="none" 
	d="
M889.017456,920.379639 
	C891.239807,916.656494 894.598877,914.634521 897.971619,916.260193 
	C900.699280,917.574829 904.003662,920.814331 904.287231,923.492737 
	C905.135193,931.502930 905.123352,939.696960 904.475403,947.740906 
	C904.025208,953.329590 899.955505,956.141785 895.413208,955.656799 
	C890.912231,955.176208 888.114563,952.118835 888.110291,946.541016 
	C888.103699,937.947571 888.591248,929.353760 889.017456,920.379639 
z"/>
<path fill="#FAFBFC" opacity="0.000000" stroke="none" 
	d="
M790.392029,956.052917 
	C783.758179,953.405090 782.848267,946.237793 788.761414,942.585022 
	C792.729797,940.133484 797.571472,939.095520 802.113708,937.390808 
	C805.073181,949.575806 801.000671,955.895203 790.392029,956.052917 
z"/>
<path fill="#345B77" opacity="1.000000" stroke="none" 
	d="
M418.916870,672.106628 
	C399.562958,671.661865 385.264862,658.047668 384.915985,640.181946 
	C384.562988,622.102966 398.146301,607.122925 415.845490,606.072205 
	C433.911896,604.999695 450.034424,618.878540 451.031555,636.361572 
	C452.140747,655.809692 438.634033,671.055481 418.916870,672.106628 
z"/>
</svg>